<?xml version="1.0" encoding="utf-8"?>
<!-- Generator: Adobe Illustrator 27.0.0, SVG Export Plug-In . SVG Version: 6.00 Build 0)  -->
<svg version="1.1" id="Layer_1" xmlns="http://www.w3.org/2000/svg" xmlns:xlink="http://www.w3.org/1999/xlink" x="0px" y="0px"
	 viewBox="0 0 1080 1080" style="enable-background:new 0 0 1080 1080;" xml:space="preserve">
<style type="text/css">
	.st0{fill-rule:evenodd;clip-rule:evenodd;fill:#D9FCA2;}
	.st1{fill:#1D342E;}
	.st2{fill:#1D1D1D;}
	.st3{fill:#D9FCA2;}
</style>
<g id="Group_10" transform="translate(-225.617 -2067)">
	<g id="Group_9" transform="translate(1268.617 2067.648)">
		<path id="Path_15" class="st0" d="M29.98,545.05c-0.77-0.41-1.52-0.85-2.24-1.34v0.53c-0.05,0.36-0.36,0.62-0.72,0.62l-26.36-0.12
			c-0.34,0.02-0.64-0.24-0.67-0.58c0-0.01,0-0.01,0-0.02l0.05-7.64c0.02-0.36,0.32-0.64,0.68-0.62c0,0,0.01,0,0.01,0l20.36,0.07
			c-0.32-0.69-0.62-1.41-0.9-2.15c-0.32-0.96-0.59-1.94-0.81-2.93l-0.07-0.37l-0.07-0.25v-0.16c-0.13-0.82-0.21-1.64-0.25-2.47
			l-18.4-0.07C-0.81,527.5-2,528.59-2.06,530l-0.02,7.57c-3.22-0.07-3.22,5.87-0.05,5.89v7.25c0.02,0.34,0.3,0.61,0.65,0.6
			l1.45-0.02c0.34-0.03,0.64,0.22,0.67,0.56c0,0.01,0,0.03,0,0.04v5.73c0.01,0.34,0.29,0.61,0.63,0.6c0.01,0,0.03,0,0.04,0h3.47
			c0.35,0,0.67-0.28,0.6-0.58l0.09-5.68c0-0.36,0.29-0.65,0.64-0.65c0,0,0,0,0,0l16.81,0.14c0.32-0.04,0.6,0.19,0.64,0.5
			c0,0.03,0,0.05,0,0.08l-0.02,5.63c-0.01,0.36,0.27,0.66,0.63,0.67c0.01,0,0.01,0,0.02,0h3.46c0.35,0,0.67-0.28,0.6-0.6l0.09-5.68
			c0-0.33,0.27-0.6,0.6-0.6c0.02,0,0.03,0,0.05,0h1.36c0.33,0,0.61-0.27,0.62-0.6l0.02-5.24L29.98,545.05z M2.18,551.45
			c-1.43,0.04-2.62-1.09-2.65-2.52c0-0.03,0-0.06,0-0.09c0.08-1.4,1.25-2.49,2.65-2.47c1.4-0.1,2.62,0.96,2.72,2.36
			c0.1,1.4-0.96,2.62-2.36,2.72C2.43,551.46,2.31,551.46,2.18,551.45 M25.27,551.36c-1.42,0.06-2.62-1.04-2.68-2.46
			c0-0.01,0-0.02,0-0.03c0.07-1.44,1.26-2.56,2.7-2.54c1.39-0.1,2.6,0.94,2.7,2.33c0.1,1.39-0.94,2.6-2.33,2.7
			C25.53,551.37,25.4,551.37,25.27,551.36"/>
		<path id="Path_16" class="st1" d="M40.81,527.02c-1.23-0.31-2.34-1-3.16-1.96c-0.81-1.02-1.29-2.27-1.36-3.58
			c-0.21-0.07-0.95-0.21-1.89-0.39c-1.09-0.18-2.19-0.3-3.3-0.35c-1.08,0.05-2.16,0.17-3.23,0.35c-1.02,0.18-1.82,0.39-1.89,0.39
			c-0.07,1.3-0.54,2.55-1.34,3.58c-0.85,0.98-1.99,1.67-3.25,1.96c0,0.05,0,0.25,0.02,0.62c0.04,0.76,0.13,1.51,0.25,2.26v0.07
			c0.22,1.03,0.49,2.05,0.81,3.05c0.37,1.01,0.83,2,1.36,2.93c0.55,1.02,1.2,1.98,1.94,2.86c0.62,0.67,1.29,1.3,1.99,1.89
			c1.03,0.86,2.16,1.6,3.35,2.22c0.8-0.41,1.57-0.88,2.31-1.41c1.37-0.97,2.59-2.12,3.62-3.44c1.16-1.54,2.1-3.25,2.77-5.06
			c0.33-1.02,0.58-2.06,0.73-3.12C40.74,528.96,40.83,527.99,40.81,527.02 M32.66,534.82l-1.62,0.44l-1.45,0.39l-0.95-3.53H26.5
			c-0.01-1.69,1.36-3.07,3.05-3.08c0.08,0,0.15,0,0.23,0.01c0.41,0.02,0.82,0.14,1.18,0.35c1.05,0.56,1.71,1.65,1.71,2.84
			L32.66,534.82z M33.86,536.28c-0.19-0.65-0.44-1.62-0.44-1.62v-2.45c0.01-1.89-1.33-3.53-3.19-3.9c-0.22-0.05-0.44-0.07-0.67-0.07
			c-0.64-0.01-1.27,0.16-1.82,0.49c-0.26,0.14-0.51,0.31-0.74,0.51l-0.42-1.57l-0.02-0.14c0.24-0.15,0.48-0.28,0.74-0.39
			c0.71-0.33,1.48-0.51,2.26-0.51c3.05-0.01,5.56,2.42,5.63,5.47v2.56l0.42,1.62L33.86,536.28z"/>
	</g>
	<g id="Group_8" transform="translate(921.617 2069.593)">
		<path id="Path_17" class="st0" d="M26.32,545.63l-1.08-0.58c-2.26-1.18-4.29-2.75-6-4.64l-0.02-0.02l-0.02-0.05
			c-1.62-1.94-2.89-4.15-3.74-6.53c-0.32-0.96-0.59-1.94-0.81-2.93l-0.07-0.37l-0.05-0.25v-0.02c-0.16,0.07-0.33,0.1-0.51,0.09
			c-1.04-0.02-2.03-0.02-3.07-0.02c-0.97,0-1.89,0-2.86,0.02c-0.58,0-0.83-0.16-0.78-0.74c0.02-0.32,0.02-0.63,0-0.95
			c-0.05-0.72,0.28-0.97,0.99-0.9c1.78,0,3.6,0.02,5.43,0c0.18-0.02,0.37-0.01,0.55,0.02c-0.02-0.35-0.02-0.6-0.02-0.74v-1.06
			c-2.31-0.02-4.62-0.02-6.93,0c-1.19-0.03-2.18,0.91-2.22,2.1c0,0.04,0,0.08,0,0.11c-0.05,0.62-0.05,1.25,0,1.87
			c0.07,0.74-0.16,1.08-0.99,1.04c-2.1-0.09-4.18-0.05-6.19,0c-1.21-0.1-2.28,0.79-2.38,2c-0.01,0.12-0.01,0.23,0,0.35
			c-0.02,1.43-0.02,2.89-0.02,4.29H-4.5v8.8h0.02c0,1.89,0,3.79,0.02,5.7c0,1.92,0.81,2.75,2.75,2.75h12.72
			c4.41,0,8.77,0,13.16-0.05c1.22,0.12,2.31-0.77,2.44-1.99c0.01-0.1,0.01-0.19,0.01-0.29c0.02-2.03-0.02-4.06,0-6.12v-1.06
			L26.32,545.63z"/>
		<path id="Path_18" class="st2" d="M36.07,527.02c-1.23-0.31-2.34-1-3.16-1.96c-0.81-1.02-1.29-2.27-1.36-3.58
			c-0.18-0.07-0.95-0.21-1.89-0.42c-1.09-0.16-2.18-0.27-3.28-0.32c-1.09,0.05-2.18,0.16-3.25,0.32c-1.02,0.21-1.82,0.42-1.89,0.42
			c-0.06,1.3-0.53,2.56-1.34,3.58c-0.83,0.95-1.94,1.63-3.16,1.94c-0.03,0-0.05,0.01-0.07,0.02c0.02,0.97,0.11,1.93,0.28,2.89v0.07
			c0.19,1.02,0.46,2.03,0.78,3.02c0.77,2.11,1.88,4.08,3.3,5.82c1.53,1.68,3.34,3.07,5.36,4.11c0.09-0.04,0.18-0.09,0.25-0.16
			c2.21-1.14,4.14-2.74,5.68-4.69c1.17-1.54,2.1-3.25,2.75-5.08c0.36-1,0.61-2.04,0.74-3.09C36,528.96,36.09,527.99,36.07,527.02
			 M27.92,535.22l-1.32,0.35l-1.75,0.46l-0.95-3.51h-2.15c0-0.51,0.13-1.01,0.37-1.46c0.56-1.07,1.7-1.71,2.91-1.62
			c1.64,0.13,2.91,1.51,2.89,3.16L27.92,535.22z M29.12,536.65c-0.18-0.65-0.44-1.59-0.44-1.59v-2.47c0-2.15-1.71-3.9-3.86-3.95
			c-0.64,0-1.27,0.16-1.82,0.46c-0.26,0.15-0.51,0.32-0.74,0.51l-0.44-1.68c0.24-0.16,0.48-0.3,0.74-0.42
			c0.71-0.32,1.48-0.49,2.26-0.48c3.05-0.01,5.56,2.42,5.63,5.47v2.56l0.42,1.59L29.12,536.65z"/>
	</g>
	<g id="Group_7" transform="translate(225.617 2068.945)">
		<path id="Path_23" class="st3" d="M28.72,545.08l-1.13,0.58l-1.08-0.6c-2.25-1.18-4.28-2.74-6-4.62l-0.02-0.05l-0.02-0.02
			c-1.62-1.95-2.89-4.17-3.74-6.56c-0.33-0.96-0.6-1.94-0.81-2.93l-0.07-0.35l-0.05-0.28v-0.16c-0.17-1.01-0.27-2.04-0.28-3.07
			v-0.19H-4.5v28.86H9.65v-10.83c0.01-0.67,0.55-1.21,1.22-1.2c0,0,0,0,0,0h2.91c0.66-0.01,1.21,0.51,1.22,1.18
			c0,0.01,0,0.02,0,0.02v10.83h14.15v-10.88C29.02,544.92,28.88,545,28.72,545.08 M6.95,548.59c-0.01,0.66-0.54,1.19-1.2,1.2H2.82
			c-0.67,0-1.21-0.53-1.22-1.2v-3.72c0.01-0.67,0.55-1.21,1.22-1.2c0,0,0,0,0,0h2.93c0.66,0,1.2,0.54,1.2,1.2L6.95,548.59z
			 M6.95,535.54c0,0.66-0.54,1.2-1.2,1.2H2.82c-0.67,0.01-1.22-0.53-1.22-1.2c0,0,0,0,0,0v-3.69c0.01-0.67,0.55-1.21,1.22-1.2
			c0,0,0,0,0,0h2.93c0.66,0,1.2,0.54,1.2,1.2L6.95,535.54z M15.01,535.54c0,0.66-0.54,1.2-1.2,1.2c-0.01,0-0.02,0-0.02,0h-2.91
			c-0.67,0.01-1.22-0.53-1.22-1.2c0,0,0,0,0,0v-3.69c0.01-0.67,0.55-1.21,1.22-1.2c0,0,0,0,0,0h2.91c0.66-0.01,1.21,0.51,1.22,1.18
			c0,0.01,0,0.02,0,0.02V535.54z M23.07,548.59c0,0.66-0.54,1.2-1.2,1.2h-2.96c-0.66-0.01-1.19-0.54-1.2-1.2v-3.72
			c0-0.66,0.54-1.2,1.2-1.2h2.95c0.66,0,1.2,0.53,1.2,1.18c0,0.01,0,0.01,0,0.02L23.07,548.59z"/>
		<path id="Path_24" class="st1" d="M37.34,527.02c-1.23-0.31-2.34-1-3.16-1.96c-0.82-1.02-1.3-2.27-1.36-3.58
			c-0.18-0.07-0.95-0.18-1.89-0.39c-1.08-0.18-2.18-0.3-3.28-0.35c-1.09,0.05-2.18,0.16-3.26,0.35c-1.02,0.21-1.82,0.39-1.89,0.39
			c-0.05,1.31-0.52,2.56-1.34,3.58c-0.7,0.82-1.61,1.44-2.63,1.78c-0.19,0.07-0.39,0.11-0.6,0.18c0.02,0.98,0.11,1.95,0.28,2.91
			v0.05c0.05,0.25,0.09,0.53,0.16,0.81c0.16,0.67,0.35,1.43,0.62,2.24c0.48,1.3,1.09,2.54,1.83,3.71c0.44,0.73,0.93,1.42,1.48,2.08
			c1.52,1.68,3.34,3.08,5.36,4.11c0.53-0.28,1.04-0.58,1.52-0.88c1.68-1.07,3.17-2.41,4.41-3.97c1.17-1.54,2.09-3.24,2.75-5.06
			c0.36-1,0.6-2.04,0.74-3.09C37.27,528.98,37.37,528,37.34,527.02 M29.19,535.22h-0.02l-3.05,0.83l-0.95-3.53h-2.15
			c-0.01-0.14,0.01-0.28,0.05-0.42c0.19-1.61,1.61-2.79,3.23-2.66c1.54,0.12,2.75,1.35,2.86,2.89c0.02,0.1,0.03,0.2,0.02,0.3
			L29.19,535.22z M30.39,536.68c-0.18-0.67-0.44-1.62-0.44-1.62v-2.45c0-0.85-0.27-1.68-0.78-2.35c-0.69-1.01-1.85-1.62-3.07-1.61
			c-0.64-0.01-1.27,0.16-1.82,0.48c-0.26,0.14-0.51,0.31-0.74,0.51l-0.44-1.71c0.23-0.14,0.46-0.28,0.74-0.42
			c0.71-0.31,1.48-0.48,2.26-0.48c1.09,0,2.16,0.33,3.07,0.92c1.58,0.97,2.55,2.69,2.56,4.55v2.56l0.42,1.62L30.39,536.68z"/>
	</g>
	<g id="Group_6" transform="translate(573.617 2067)">
		<path id="Path_25" class="st0" d="M-4.5,539.86L-4.5,539.86c0.37-0.04,0.73-0.11,1.09-0.21c1.41-0.32,2.88-0.25,4.25,0.21
			c0.88,0.26,0.93,0.26,0.99-0.67c0.28-2.39,0.91-4.73,1.86-6.94c0.91-2.33,2.33-4.44,4.14-6.16c0.21-0.15,0.47-0.31,0.47-0.57
			c-0.21-0.2-0.36-0.1-0.57-0.05c-6.23,1.52-10.98,6.58-12.12,12.89c-0.05,0.15-0.05,0.26-0.1,0.41L-4.5,539.86z"/>
		<path id="Path_26" class="st0" d="M4.3,554.41L4.3,554.41l2.18-0.26c-0.07,0.99,0.21,1.98,0.78,2.8c0.49,0.53,1.19,0.82,1.92,0.78
			c0.54,0,1.08-0.15,1.55-0.42c0.41-0.25,0.73-0.63,0.88-1.09c0.19-0.74,0.28-1.51,0.26-2.28v-12.48h2.38v12.32
			c0.06,1.2-0.12,2.39-0.52,3.52c-0.39,0.8-1,1.46-1.76,1.92c-0.87,0.43-1.83,0.65-2.79,0.62c-1.34,0.08-2.66-0.41-3.62-1.35
			C4.64,557.34,4.2,555.88,4.3,554.41"/>
		<path id="Path_27" class="st0" d="M17.2,533.81c0.79,2.21,1.94,4.28,3.39,6.13c-2.04-0.57-4.13-0.94-6.24-1.11
			c-2.21-0.12-4.42,0.07-6.57,0.56c-1.3,0.25-2.59,0.59-3.84,1.04c-0.52,0.2-0.67,0-0.63-0.47c0.11-1.09,0.37-2.12,0.58-3.21
			c0.54-3.02,1.78-5.88,3.62-8.34c0.91-1.3,2.16-2.32,3.62-2.95c1.25-0.47,1.25-0.47,1.25-1.86c0.05-0.58-0.2-1.25,0.36-1.76h0.67
			c0.67,0.73,0,2.39,0.36,3.21c0.26,0.47,0.98,0.31,1.45,0.52c0.26,0.13,0.51,0.28,0.75,0.45v0.98c0.01,1.04,0.11,2.07,0.28,3.09
			v0.15l0.06,0.26l0.07,0.36C16.59,531.87,16.86,532.85,17.2,533.81"/>
		<path id="Path_28" class="st1" d="M37.81,527c-1.23-0.3-2.34-0.97-3.17-1.94c-0.82-1.02-1.29-2.27-1.36-3.58
			c-0.18-0.07-0.95-0.21-1.89-0.42c-1.08-0.18-2.18-0.28-3.28-0.32c-1.09,0.04-2.18,0.15-3.26,0.32c-1.02,0.21-1.82,0.42-1.89,0.42
			c-0.05,1.31-0.52,2.56-1.34,3.58c-0.39,0.47-0.86,0.87-1.38,1.18c-0.52,0.33-1.09,0.57-1.69,0.72c-0.05,0.03-0.11,0.04-0.16,0.05
			c0,0.11,0,0.6,0.07,1.43c0.05,0.42,0.09,0.9,0.21,1.48v0.07c0.2,1.03,0.46,2.05,0.78,3.05c0.71,1.98,1.74,3.82,3.05,5.47
			c0.1,0.1,0.18,0.21,0.25,0.32c0.35,0.35,0.69,0.72,1.06,1.06l0.09,0.09c1.26,1.17,2.67,2.16,4.2,2.96
			c2.31-1.17,4.34-2.83,5.93-4.87c1.17-1.53,2.1-3.22,2.75-5.03c0.36-1.01,0.61-2.05,0.74-3.12C37.74,528.95,37.83,527.98,37.81,527
			 M29.65,534.55l-0.81,0.21l-2.26,0.62l-0.94-3.53h-2.15c0-1.7,1.38-3.08,3.07-3.08c0.07,0,0.14,0,0.2,0.01
			c1.64,0.15,2.9,1.53,2.89,3.19L29.65,534.55z M30.85,536.01c-0.18-0.65-0.44-1.62-0.44-1.62v-2.45c0.01-2.15-1.7-3.92-3.86-3.97
			c-0.64-0.01-1.27,0.16-1.82,0.48c-0.16,0.07-0.31,0.16-0.44,0.28c-0.09,0.07-0.21,0.16-0.3,0.23l-0.16-0.6l-0.28-1.11
			c0.24-0.15,0.48-0.28,0.74-0.39c0.71-0.33,1.48-0.51,2.26-0.51c3.05-0.01,5.56,2.42,5.63,5.47v2.56l0.42,1.62L30.85,536.01z"/>
	</g>
</g>
</svg>
