<?xml version="1.0" encoding="utf-8"?>
<!-- Generator: Adobe Illustrator 27.0.0, SVG Export Plug-In . SVG Version: 6.00 Build 0)  -->
<svg version="1.1" id="Layer_1" xmlns="http://www.w3.org/2000/svg" xmlns:xlink="http://www.w3.org/1999/xlink" x="0px" y="0px"
	 viewBox="0 0 1080 1080" style="enable-background:new 0 0 1080 1080;" xml:space="preserve">
<style type="text/css">
	.st0{fill-rule:evenodd;clip-rule:evenodd;fill:#D9FCA2;}
	.st1{fill:#1D342E;}
	.st2{fill:#1D1D1D;}
	.st3{fill:#D9FCA2;}
</style>
<g id="Group_10" transform="translate(-225.617 -2067)">
	
	<g id="Group_7" transform="translate(225.617 2068.945)">
		<path id="Path_23" class="st3" d="M28.72,545.08l-1.13,0.58l-1.08-0.6c-2.25-1.18-4.28-2.74-6-4.62l-0.02-0.05l-0.02-0.02
			c-1.62-1.95-2.89-4.17-3.74-6.56c-0.33-0.96-0.6-1.94-0.81-2.93l-0.07-0.35l-0.05-0.28v-0.16c-0.17-1.01-0.27-2.04-0.28-3.07
			v-0.19H-4.5v28.86H9.65v-10.83c0.01-0.67,0.55-1.21,1.22-1.2c0,0,0,0,0,0h2.91c0.66-0.01,1.21,0.51,1.22,1.18
			c0,0.01,0,0.02,0,0.02v10.83h14.15v-10.88C29.02,544.92,28.88,545,28.72,545.08 M6.95,548.59c-0.01,0.66-0.54,1.19-1.2,1.2H2.82
			c-0.67,0-1.21-0.53-1.22-1.2v-3.72c0.01-0.67,0.55-1.21,1.22-1.2c0,0,0,0,0,0h2.93c0.66,0,1.2,0.54,1.2,1.2L6.95,548.59z
			 M6.95,535.54c0,0.66-0.54,1.2-1.2,1.2H2.82c-0.67,0.01-1.22-0.53-1.22-1.2c0,0,0,0,0,0v-3.69c0.01-0.67,0.55-1.21,1.22-1.2
			c0,0,0,0,0,0h2.93c0.66,0,1.2,0.54,1.2,1.2L6.95,535.54z M15.01,535.54c0,0.66-0.54,1.2-1.2,1.2c-0.01,0-0.02,0-0.02,0h-2.91
			c-0.67,0.01-1.22-0.53-1.22-1.2c0,0,0,0,0,0v-3.69c0.01-0.67,0.55-1.21,1.22-1.2c0,0,0,0,0,0h2.91c0.66-0.01,1.21,0.51,1.22,1.18
			c0,0.01,0,0.02,0,0.02V535.54z M23.07,548.59c0,0.66-0.54,1.2-1.2,1.2h-2.96c-0.66-0.01-1.19-0.54-1.2-1.2v-3.72
			c0-0.66,0.54-1.2,1.2-1.2h2.95c0.66,0,1.2,0.53,1.2,1.18c0,0.01,0,0.01,0,0.02L23.07,548.59z"/>
		<path id="Path_24" class="st1" d="M37.34,527.02c-1.23-0.31-2.34-1-3.16-1.96c-0.82-1.02-1.3-2.27-1.36-3.58
			c-0.18-0.07-0.95-0.18-1.89-0.39c-1.08-0.18-2.18-0.3-3.28-0.35c-1.09,0.05-2.18,0.16-3.26,0.35c-1.02,0.21-1.82,0.39-1.89,0.39
			c-0.05,1.31-0.52,2.56-1.34,3.58c-0.7,0.82-1.61,1.44-2.63,1.78c-0.19,0.07-0.39,0.11-0.6,0.18c0.02,0.98,0.11,1.95,0.28,2.91
			v0.05c0.05,0.25,0.09,0.53,0.16,0.81c0.16,0.67,0.35,1.43,0.62,2.24c0.48,1.3,1.09,2.54,1.83,3.71c0.44,0.73,0.93,1.42,1.48,2.08
			c1.52,1.68,3.34,3.08,5.36,4.11c0.53-0.28,1.04-0.58,1.52-0.88c1.68-1.07,3.17-2.41,4.41-3.97c1.17-1.54,2.09-3.24,2.75-5.06
			c0.36-1,0.6-2.04,0.74-3.09C37.27,528.98,37.37,528,37.34,527.02 M29.19,535.22h-0.02l-3.05,0.83l-0.95-3.53h-2.15
			c-0.01-0.14,0.01-0.28,0.05-0.42c0.19-1.61,1.61-2.79,3.23-2.66c1.54,0.12,2.75,1.35,2.86,2.89c0.02,0.1,0.03,0.2,0.02,0.3
			L29.19,535.22z M30.39,536.68c-0.18-0.67-0.44-1.62-0.44-1.62v-2.45c0-0.85-0.27-1.68-0.78-2.35c-0.69-1.01-1.85-1.62-3.07-1.61
			c-0.64-0.01-1.27,0.16-1.82,0.48c-0.26,0.14-0.51,0.31-0.74,0.51l-0.44-1.71c0.23-0.14,0.46-0.28,0.74-0.42
			c0.71-0.31,1.48-0.48,2.26-0.48c1.09,0,2.16,0.33,3.07,0.92c1.58,0.97,2.55,2.69,2.56,4.55v2.56l0.42,1.62L30.39,536.68z"/>
	</g>
	
</g>
</svg>
