<?xml version="1.0" encoding="utf-8"?>
<!-- Generator: Adobe Illustrator 27.0.0, SVG Export Plug-In . SVG Version: 6.00 Build 0)  -->
<svg version="1.1" id="Layer_1" xmlns="http://www.w3.org/2000/svg" xmlns:xlink="http://www.w3.org/1999/xlink" x="0px" y="0px"
	 viewBox="0 0 1080 1080" style="enable-background:new 0 0 1080 1080;" xml:space="preserve">
<style type="text/css">
	.st0{clip-path:url(#SVGID_00000101080268527930978430000008189767576433474976_);}
	.st1{fill:#D9FCA2;}
</style>
<g id="Group_2" transform="translate(0 0)">
	<g>
		<defs>
			<rect id="SVGID_1_" x="157.67" y="430.57" width="764" height="219.48"/>
		</defs>
		<clipPath id="SVGID_00000102542647942666277360000011773072436684379544_">
			<use xlink:href="#SVGID_1_"  style="overflow:visible;"/>
		</clipPath>
		<g id="Group_1" transform="translate(0 0)" style="clip-path:url(#SVGID_00000102542647942666277360000011773072436684379544_);">
			<path id="Path_1" class="st1" d="M842.55,548.65l-12.29-46.13h-28.15c-0.01-22.27,18.05-40.33,40.32-40.34
				c0.9,0,1.79,0.03,2.68,0.09c21.45,1.38,37.65,20.14,37.65,41.63v34.03L842.55,548.65z"/>
			<path id="Path_2" class="st1" d="M921.67,556.72h-23.19c-2.28-8.49-5.58-20.92-5.58-20.92s-0.07-21.56-0.07-32.17
				c0-26.83-21.37-51.88-50.4-51.88c-8.42-0.08-16.72,2.05-24.07,6.17c-3.37,1.89-6.54,4.14-9.43,6.7l-5.91-22.16
				c3.12-2.05,6.39-3.86,9.79-5.42c9.29-4.29,19.4-6.5,29.63-6.48c39.44,0,73.66,32.13,73.66,71.62v33.58L921.67,556.72z"/>
			<path id="Path_3" class="st1" d="M201.55,608.88v-7.14c-5.05-1.68-10.34-2.51-15.66-2.47c-7.52,0-13.56,4.19-13.56,10.23
				s5.29,9.86,12.45,9.86C192.05,619.35,199.83,615.66,201.55,608.88 M216.21,590.52v38.33h-14.66v-7.64
				c-5.03,5.85-12.38,9.18-20.09,9.11c-13.56,0-23.8-8.01-23.8-20.33c0-12.57,11.71-21.2,26.01-21.2
				c6.12,0.07,12.18,1.24,17.88,3.46v-1.72c0-7.4-4.07-14.55-15.66-14.55c-6.05,0.25-11.95,1.89-17.25,4.81l-5.17-10.47
				c7.84-4.15,16.53-6.43,25.39-6.66C205.74,563.65,216.21,574.37,216.21,590.52"/>
			<rect id="Rectangle_1" x="230.11" y="542.69" class="st1" width="15.04" height="86.15"/>
			<path id="Path_4" class="st1" d="M310.9,596.93c0-11.96-7.64-20.47-18.37-20.47c-10.6,0-17.99,8.52-17.99,20.47
				c0,11.94,7.39,20.57,17.99,20.57C303.26,617.5,310.9,608.87,310.9,596.93 M325.81,596.93c0,19.59-12.34,33.4-29.21,33.4
				c-8.88,0.16-17.24-4.2-22.19-11.58v31.31h-15.04v-84.92h15.04v10.11c4.95-7.38,13.3-11.75,22.19-11.59
				C313.48,563.66,325.81,577.47,325.81,596.93"/>
			<path id="Path_5" class="st1" d="M395.44,588.3v40.54H380.9v-37.58c0-8.62-5.54-14.79-13.43-14.79c-8.5,0-15.52,6.17-15.52,13.81
				v38.56H336.9V542.7h15.04v31.19c4.43-6.58,11.91-10.44,19.84-10.23C385.71,563.65,395.45,573.88,395.44,588.3"/>
			<path id="Path_6" class="st1" d="M448.87,608.88v-7.14c-5.05-1.68-10.34-2.51-15.65-2.47c-7.52,0-13.56,4.19-13.56,10.23
				s5.29,9.86,12.44,9.86C439.38,619.35,447.15,615.66,448.87,608.88 M463.53,590.52v38.33h-14.66v-7.64
				c-5.03,5.85-12.38,9.18-20.09,9.11c-13.56,0-23.8-8.01-23.8-20.33c0-12.57,11.71-21.2,26-21.2c6.12,0.07,12.18,1.24,17.88,3.46
				v-1.72c0-7.4-4.07-14.55-15.65-14.55c-6.05,0.24-11.95,1.89-17.25,4.81l-5.15-10.47c7.84-4.15,16.53-6.43,25.39-6.66
				c16.89,0,27.36,10.72,27.36,26.87"/>
			<path id="Path_7" class="st1" d="M524.07,593.84c-0.12-9.63-8.03-17.34-17.67-17.22c-9.46,0.12-17.09,7.76-17.22,17.22
				c-0.12,9.63,7.58,17.54,17.22,17.67c9.63,0.12,17.54-7.58,17.67-17.22C524.07,594.14,524.07,593.99,524.07,593.84 M539.1,565.13
				v56.93c0,16.39-13.81,27.98-33.28,27.98c-9.8,0.16-19.39-2.82-27.37-8.52l5.55-10.97c5.55,4.45,12.48,6.81,19.59,6.66
				c12.57,0,20.47-6.04,20.47-15.64v-8.24c-5.09,6.94-13.22,10.98-21.82,10.85c-16.51,0-28.71-12.57-28.71-30.32
				s12.2-30.19,28.71-30.19c8.64-0.17,16.8,3.93,21.82,10.96v-9.49H539.1z"/>
			<path id="Path_8" class="st1" d="M611.62,565.13v63.72h-15.04v-8.5c-4.52,6.38-11.9,10.12-19.72,9.99
				c-13.93,0-23.67-10.22-23.67-24.65v-40.55h14.54v37.58c0,8.63,5.55,14.79,13.44,14.79c7.4,0.3,13.93-4.82,15.4-12.08v-40.3
				H611.62z"/>
			<path id="Path_9" class="st1" d="M665.68,608.88v-7.14c-5.05-1.68-10.34-2.51-15.65-2.47c-7.52,0-13.56,4.19-13.56,10.23
				s5.29,9.86,12.44,9.86C656.19,619.35,663.96,615.66,665.68,608.88 M680.34,590.52v38.33h-14.66v-7.64
				c-5.03,5.85-12.38,9.18-20.09,9.11c-13.55,0-23.8-8.01-23.8-20.33c0-12.57,11.71-21.2,26-21.2c6.12,0.07,12.18,1.24,17.88,3.46
				v-1.72c0-7.4-4.07-14.55-15.65-14.55c-6.05,0.24-11.96,1.89-17.25,4.81l-5.18-10.48c7.84-4.15,16.53-6.43,25.39-6.66
				C669.87,563.64,680.33,574.36,680.34,590.52"/>
			<path id="Path_10" class="st1" d="M732.23,563.65v12.82c-13.68,0-22.81,8.14-22.81,20.21v32.17H694.4v-63.71h15.03v12.34
				c4.18-8.73,13.13-14.15,22.81-13.81"/>
			<path id="Path_11" class="st1" d="M787.08,596.92c0-11.96-7.4-20.46-18-20.46c-10.72,0-18.36,8.5-18.36,20.46
				s7.64,20.59,18.36,20.59C779.68,617.51,787.08,608.88,787.08,596.92 M802.12,542.7v86.14h-15.04v-9.85
				c-4.98,7.24-13.27,11.5-22.06,11.34c-16.89,0-29.21-13.81-29.21-33.4c0-19.47,12.32-33.27,29.21-33.27
				c8.79-0.16,17.07,4.1,22.06,11.34V542.7H802.12z"/>
		</g>
	</g>
</g>
</svg>
